<svg display="none" width="0" height="0" version="1.1" xmlns="http://www.w3.org/2000/svg" xmlns:xlink="http://www.w3.org/1999/xlink">
<defs>
<symbol id="icon-shaka-color" viewBox="0 0 1024 1024" style="enable-background:new 0 0 1024 1024;">
	<title>shaka button</title>
	<path class="cuffline" style="&st1;" d="M819.147,378.937c-34.108-9.554-45.11,2.684-116.434,35.766c36.951-26.096,20.159-76.456-24.609-88.668
		c-0.342-13.776-7.974-44.767-38.476-54.413c0.104-41.977-48.771-77.863-85.22-41.438l-95.801,95.971
		c-16.685-23.978-45.07-62.863-48.452-65.851c-32.069-28.095-87.903-45.452-90.233-46.188c-10.04-3-36.516,5.817-50.491,27.437
		c-18.055,27.858-5.791,44.913-1.605,48.849c0,0,41.109,39.109,51.847,49.662c13.159,35.135,38.662,136.462,32.056,152.846
		c-4.394,1.104-8.422,3.315-11.646,6.552L218.926,620.593c-10.225,10.267-10.225,26.872,0.04,37.163l167.399,167.333
		c9.791,8.369,24.503,7.737,33.555-1.316l108.748-108.747c9.646-9.66,9.673-25.347,0.039-35.006l-5.578-5.525
		c0,0,3.829-4.316,6.763-5.026c11.462-2.526,25.649-5.607,36.939-16.896l100.144-92.087l154.305-76.801
		C878.284,453.365,847.599,386.937,819.147,378.937z M806.435,463.353l-47.006,23.648c-2.263,1.709-4.685,3.342-7.553,4.842
		l-103.431,50.979l-99.143,92.301c-11.66,11.656-35.517,8.946-44.123,17.553l-7.461,7.475L369.126,531.558
		c3.5-15.134,7.487-34.069,8.421-45.899c1.737-22.306-28.607-151.306-38.582-161.281c-9.961-9.961-54.203-51.964-54.203-51.964
		s-2.777-22.122,27.858-34.636c0,0,52.215,15.909,81.206,41.228c0,0,47.781,64.021,60.861,85.958l114.512-114.421
		c28.031-28.029,62.797,17.542,40.688,47.978l3.054,5.119c35.923-20.04,53.321,27.042,35.398,49.27l3.08,5.119
		c33.688-20.016,71.979,35.241,10.921,73.627l-12.184,31.358l131.724-59.717C814.041,387.398,848.386,437.731,806.435,463.353z"/>
	<path class="hand" style="&st0;" d="M806.435,463.353l-47.006,23.648c-2.263,1.709-4.685,3.342-7.553,4.842l-103.431,50.979l-99.143,92.301
		c-11.66,11.656-35.517,8.946-44.123,17.553l-7.461,7.475L369.126,531.558c3.5-15.134,7.487-34.069,8.421-45.899
		c1.737-22.306-28.607-151.306-38.582-161.281c-9.961-9.961-54.203-51.964-54.203-51.964s-2.777-22.122,27.858-34.636
		c0,0,52.215,15.909,81.206,41.228c0,0,47.781,64.021,60.861,85.958l114.512-114.421c28.031-28.029,62.797,17.542,40.688,47.978
		l3.054,5.119c35.923-20.04,53.321,27.042,35.398,49.27l3.08,5.119c33.688-20.016,71.979,35.241,10.921,73.627l-12.184,31.358
		l131.724-59.717C814.041,387.398,848.386,437.731,806.435,463.353z"/>
</symbol>
<symbol id="icon-shaka" viewBox="0 0 1024 1024">
	<title>shaka</title>
	<path class="path1" d="M943.232 296.491c-51.328-14.379-67.84 4.053-175.104 53.76 55.595-39.211 30.336-114.901-36.992-133.333-0.512-20.693-11.989-67.285-57.813-81.792 0.171-63.104-73.344-117.077-128.085-62.293l-144.043 144.299c-25.088-36.053-67.755-94.507-72.832-98.987-48.213-42.24-132.181-68.352-135.68-69.419-15.061-4.523-54.912 8.747-75.904 41.216-27.136 41.899-8.704 67.541-2.432 73.429 0 0 61.781 58.795 77.952 74.667 19.755 52.821 58.112 205.184 48.171 229.803-6.613 1.664-12.629 4.992-17.493 9.856l-182.144 182.144c-15.403 15.403-15.403 40.363 0.043 55.851l251.648 251.605c14.677 12.544 36.821 11.605 50.432-2.005l163.499-163.541c14.507-14.464 14.549-38.101 0.043-52.565l-8.363-8.277c0 0 5.76-6.485 10.155-7.595 17.237-3.797 38.571-8.405 55.552-25.387l150.571-138.453 231.936-115.499c85.803-45.568 39.637-145.451-3.115-157.483zM924.16 423.424l-70.741 35.541c-3.328 2.56-6.997 5.035-11.349 7.296l-155.52 76.587-149.077 138.795c-17.493 17.536-53.333 13.44-66.304 26.411l-11.221 11.221-193.28-193.323c5.291-22.741 11.264-51.2 12.672-68.992 2.645-33.536-43.008-227.499-57.984-242.475s-81.493-78.123-81.493-78.123-4.181-33.237 41.899-52.053c0 0 78.507 23.936 122.069 61.995 0 0 71.851 96.213 91.52 129.237l172.117-172.032c42.155-42.155 94.507 26.368 61.184 72.107l4.651 7.723c54.016-30.123 80.085 40.661 53.163 74.069l4.651 7.723c50.603-30.123 108.245 52.992 16.427 110.677l-18.347 47.147 198.101-89.771c48.299-23.936 99.883 51.712 36.864 90.24z"></path>
</symbol>
<symbol id="icon-arrow" viewBox="0 0 1024 1024">
	<title>arrow</title>
	<path class="path1" d="M196.523 850.176c2.048 9.259-2.901 9.344-8.96 6.229-10.88-5.547-21.461-11.691-32.256-17.408-2.261-1.152-4.949-1.579-7.381-2.389-0.768 1.365-1.579 2.645-2.304 3.925 14.72 9.515 29.483 18.901 44.203 28.373-0.853 1.493-1.707 2.987-2.517 4.48-14.293-7.168-28.587-14.336-42.88-21.547-0.853 1.493-1.664 2.944-2.517 4.48 15.744 9.387 31.403 18.731 47.104 28.16-17.451 3.371-29.141-9.856-45.099-12.245 9.728 6.571 19.499 13.269 29.269 19.84-0.768 1.195-1.493 2.475-2.304 3.755-11.051-5.632-22.101-11.264-33.152-16.896-0.725 1.152-1.408 2.389-2.133 3.584 9.771 6.101 19.499 12.117 29.227 18.219-0.683 1.323-1.365 2.645-2.048 3.968-8.875-3.499-17.749-6.955-26.624-10.411-0.469 0.768-0.981 1.536-1.451 2.304 5.632 3.456 11.307 6.997 16.939 10.496-0.299 0.896-0.64 1.749-0.939 2.645-3.328 0.427-6.613 0.853-9.941 1.195 10.837 9.387 29.653 10.24 43.605 4.48 18.773-7.808 38.613-13.013 57.429-20.779 30.208-12.416 60.416-25.045 89.6-39.765 9.387-4.693 15.445-16.085 23.083-24.405-0.683-0.811-1.323-1.621-2.005-2.475 3.541 0.384 7.125 0.811 11.477 1.28 0-3.029 0-5.717 0-9.259 4.523 0 8.32 0 14.891 0-4.523-3.499-8.064-4.992-9.173-7.509-1.408-3.115-2.56-9.088-0.853-10.581 9.984-9.088 19.925-18.688 31.573-25.131 10.325-5.76 18.432-12.8 26.069-21.291 8.576-9.6 19.797-17.152 26.539-27.733 5.931-9.173 8.661-21.12 10.112-32.213 1.152-8.704-2.304-17.877-2.773-26.88-0.256-4.693 1.707-9.557 2.432-14.379 1.536-9.685 3.541-19.371 4.096-29.141 0.768-11.648 0.171-23.381 0.171-38.315 8.875 4.949 15.147 8.363 22.955 12.715-3.584 2.816-5.845 4.565-7.083 5.504 2.944 5.931 5.76 11.563 10.539 21.291 2.517-7.424 5.376-12.117 5.376-16.768 0.213-29.44-0.64-58.923-0.171-88.363 0.128-9.728-0.085-16.981-8.917-24.021-4.779-3.84-5.419-13.824-6.272-21.291-1.451-12.459-1.579-25.131-2.347-38.485 1.408 0.725 3.627 1.963 5.931 2.901 3.115 1.28 6.272 2.347 9.387 3.413 0.128-4.011 1.323-8.277 0.043-11.776-0.683-1.749-6.059-3.2-8.661-2.517-9.088 2.432-12.075 0.768-10.325-9.472 1.323-7.936 0.256-16.341-0.512-24.448-1.067-11.648-2.816-23.211-4.309-34.944 19.84-0.256 16.683 14.891 18.987 24.192 2.261 9.387 0.469 19.755 1.621 30.080 5.973-14.208 3.072-31.872 16.256-43.093l-0.341 0.341c11.093-6.528 22.357-12.928 33.323-19.712 8.32-5.248 14.933-13.525 27.008-9.984 3.712 1.024 8.875-2.987 14.592-3.029-17.707 16.128-35.371 32.213-53.035 48.299 0.597 0.683 1.109 1.451 1.707 2.176 19.584-14.933 39.211-29.781 58.795-44.715 0.939 0.981 1.92 2.048 2.901 3.029-2.176 2.432-4.096 5.163-6.571 7.253-17.877 14.677-36.096 29.013-53.717 43.989-3.413 2.859-4.779 8.149-7.083 12.373 1.195 0.939 2.432 1.92 3.669 2.859 11.776-8.021 23.595-16 35.328-23.979 0.725 0.896 1.365 1.792 2.048 2.645-14.549 12.203-29.056 24.405-43.563 36.608 1.067 1.707 2.176 3.413 3.285 5.163 6.656-3.584 13.44-6.997 19.968-10.795 6.699-3.925 13.141-8.235 19.669-12.416 0.64 0.896 1.323 1.749 1.963 2.645-12.459 9.643-25.003 19.243-37.504 28.885 1.109 1.493 2.304 2.987 3.456 4.48 11.093-8.491 22.229-16.939 33.408-25.429 0.683 0.896 1.408 1.707 2.133 2.603-14.123 13.355-28.203 26.752-42.283 40.107 1.237 1.664 2.603 3.328 3.84 4.992 7.083-4.224 14.123-8.533 21.333-12.544 6.357-3.541 11.051-12.245 20.821-6.144 1.451 0.896 6.187-3.243 9.344-5.205 3.499-2.176 6.955-4.437 10.411-6.741 0.64 0.939 1.365 1.877 2.005 2.859-22.4 18.731-44.885 37.504-67.328 56.277 0.896 1.451 1.792 2.859 2.645 4.395 4.011-1.749 8.448-2.859 11.947-5.333 18.048-13.141 35.797-26.667 53.888-39.851 3.413-2.517 7.637-4.011 11.52-5.931 0.768 1.152 1.579 2.347 2.389 3.499-27.221 20.693-54.4 41.429-81.621 62.080 0.811 1.707 1.579 3.371 2.389 5.12 3.84-1.28 8.277-1.664 11.435-3.925 16.299-11.776 32.299-24.021 50.688-34.347-2.773 3.285-5.12 7.211-8.405 9.813-14.72 11.861-29.824 23.381-44.672 35.115-5.632 4.437-11.861 8.875-5.504 18.816 23.424-16.768 46.635-33.408 69.845-50.048 0.939 1.195 1.877 2.389 2.773 3.584-10.027 8.277-19.968 16.811-30.208 24.789-12.629 9.856-25.771 19.029-38.229 29.184-2.859 2.347-3.627 7.296-5.333 11.008 4.139-0.341 9.216 0.725 12.288-1.237 21.333-13.568 42.197-27.861 63.317-41.771 4.309-2.816 9.088-4.864 13.696-7.253 0.683 1.109 1.365 2.261 2.005 3.328-2.944 2.475-5.803 5.035-8.917 7.168-24.021 16.427-48.171 32.597-71.979 49.323-3.029 2.133-4.011 7.211-5.931 10.88 4.309-0.768 9.429-0.384 12.885-2.517 15.701-9.771 30.933-20.267 46.379-30.421 1.237-0.811 2.987-0.896 6.4-1.877-4.309 6.016-7.509 10.453-10.667 14.848-15.957 4.224-54.912 34.347-57.728 46.336 5.803-4.437 10.453-7.808 14.848-11.392 14.251-11.691 28.373-23.509 42.581-35.243 8.875-4.224 17.749-8.405 26.624-12.629 0.555 0.725 1.067 1.451 1.621 2.133-28.544 22.4-57.088 44.8-85.675 67.243 0.811 1.067 1.579 2.133 2.304 3.2 22.059-15.147 44.117-30.293 66.219-45.44 0.768 1.152 1.579 2.347 2.432 3.499-23.253 18.475-46.464 36.821-69.76 55.253 1.237 1.749 2.475 3.413 3.712 5.077 23.253-17.195 46.507-34.347 69.76-51.541 1.109 1.451 2.219 2.944 3.328 4.437-24.789 19.925-49.579 39.851-74.368 59.733 0.811 1.579 1.579 3.115 2.347 4.736 4.523-1.877 9.813-2.816 13.483-5.717 16.896-13.312 33.195-27.392 49.92-40.875 3.584-2.901 8.107-4.608 12.203-6.912 0.64 0.896 1.237 1.792 1.835 2.645-23.979 20.779-48 41.557-72.021 62.293 1.024 1.408 2.048 2.816 3.072 4.224 2.901-1.408 6.187-2.475 8.661-4.437 16.469-13.227 32.683-26.667 49.195-39.808 4.139-3.285 9.173-5.461 13.781-8.192 0.811 1.237 1.664 2.517 2.432 3.84-23.723 19.883-47.403 39.723-71.125 59.605 0.939 1.237 1.877 2.56 2.816 3.797 23.509-16.427 47.104-32.896 70.571-49.323 1.152 1.451 2.261 2.901 3.413 4.395-24.192 18.645-48.341 37.205-72.533 55.808 0.853 1.664 1.707 3.285 2.56 5.035 3.541-1.152 7.637-1.451 10.496-3.456 15.957-11.136 31.488-22.656 47.232-34.005 3.2-2.261 6.741-4.096 10.112-6.059 0.811 0.981 1.664 2.048 2.517 3.072-2.219 2.347-4.139 5.035-6.656 6.997-15.019 11.563-30.251 22.784-45.184 34.517-3.456 2.688-5.845 6.784-7.339 11.733 26.325-14.336 48.725-34.773 76.8-45.013 0.683 0.853 1.365 1.664 2.048 2.56-1.664 1.792-2.944 4.096-4.949 5.376-17.195 11.435-34.517 22.485-51.669 33.963-4.181 2.773-8.405 6.016-11.435 9.899-1.835 2.347-1.536 6.357-2.091 9.728 3.157-0.555 6.997-0.128 9.387-1.792 13.781-9.771 27.093-20.053 40.789-29.909 2.944-2.048 6.699-3.029 10.069-4.48 0.683 1.152 1.323 2.347 1.963 3.456-9.259 6.699-19.499 12.459-27.435 20.437-7.040 6.997-23.168 9.899-15.829 27.179 19.712-12.16 36.651-27.435 59.221-32.128-15.232 18.56-46.208 20.565-52.352 52.821 24.448-15.872 46.336-30.123 68.352-44.416 0.981 1.493 1.963 2.944 2.987 4.437-18.859 13.568-37.803 27.136-56.704 40.704 0.981 1.664 2.005 3.285 3.072 4.949 22.699-4.949 36.48-27.776 60.16-31.659-16.725 13.013-33.493 26.027-50.261 39.040 0.981 1.536 2.005 3.115 3.072 4.651 16.341-9.557 32.725-19.115 49.109-28.672 0.939 1.408 1.835 2.816 2.731 4.224-9.301 6.699-18.56 13.397-27.819 20.096 0.256 0.427 0.512 0.811 0.768 1.195 15.872-6.101 31.787-12.117 47.659-18.219 0.512 1.024 1.067 2.091 1.579 3.072-20.395 18.816-40.875 37.675-61.269 56.448 0.811 1.707 1.579 3.456 2.347 5.163 4.053-0.981 9.003-0.896 11.989-3.2 14.251-11.221 27.861-23.253 41.941-34.603 3.499-2.816 8.021-4.352 12.885-5.12-16.768 22.016-45.824 32.085-54.912 61.013 14.336-12.117 28.715-24.192 43.093-36.352 1.28 1.451 2.603 2.859 3.925 4.352-9.387 8.405-18.816 16.768-28.843 25.728 16.768 7.765 21.205 4.437 26.837-8.917 3.115-7.381 13.184-11.861 20.395-17.28 0.341-0.299 3.456 3.157 4.992 4.565 6.827-3.584 13.355-6.955 19.925-10.325 0.896 1.408 1.792 2.773 2.688 4.181-14.037 11.563-27.989 23.083-41.984 34.56 0.853 1.152 1.707 2.347 2.56 3.499 13.952-7.125 27.861-14.336 41.813-21.504 0.853 1.28 1.664 2.645 2.475 3.925-11.563 13.995-34.517 15.488-42.283 33.707 0.768 1.024 1.493 2.091 2.176 3.072 17.963-11.435 35.925-22.784 53.931-34.176 0.768 0.896 1.536 1.835 2.347 2.731-6.187 16.299-29.141 18.603-34.816 35.285 1.024 1.237 2.048 2.56 3.072 3.755 18.517-13.099 37.035-26.197 55.595-39.296 1.152 1.408 2.347 2.901 3.541 4.395-15.445 14.208-30.891 28.373-46.336 42.624 0.939 1.664 1.963 3.328 2.901 5.12 5.589-2.219 11.947-3.371 16.725-6.699 10.325-7.253 19.669-15.872 29.781-23.509 3.627-2.688 8.235-4.181 12.416-6.229 1.067 1.451 2.133 2.944 3.243 4.437-13.909 11.861-27.861 23.765-41.771 35.627 0.128 1.237 0.256 2.56 0.384 3.755 3.84-0.597 8.704 0.043 11.349-2.048 9.557-7.637 18.261-16.256 27.605-24.149 3.413-2.859 7.723-4.736 13.013-5.077-11.861 11.136-23.723 22.229-37.035 34.731 7.296 4.48 10.027 6.187 10.795 6.656 17.792-13.568 34.389-26.24 50.987-38.869 1.365 1.493 2.731 2.987 4.139 4.48-3.669 3.797-7.040 7.936-11.008 11.392-7.040 6.059-14.507 11.563-21.547 17.579-5.803 4.864-7.040 9.131 1.749 12.757 6.485 2.688 12.331 6.784 16.896 9.472 11.093-10.069 21.76-19.797 32.469-29.525l-0.384 0.427c9.771 2.603 7.851 6.955 1.749 11.819-8.448 6.827-16.939 13.611-25.984 20.864 6.528 6.528 11.264 9.685 18.176 1.451 5.547-6.571 12.203-13.355 22.955-7.723 1.195 0.725 6.315-4.608 8.576-7.936 0.853-1.28-0.939-4.736-2.048-7.040-24.32-48.811-49.067-97.365-73.045-146.389-14.763-30.037-28.288-60.672-42.624-90.923-9.771-20.693-20.096-41.173-29.952-61.824-2.517-5.248-4.309-10.923-6.528-16.341-4.395-10.795 0.341-13.824 10.368-12.8 6.741 32.981 20.224 62.933 40.235 91.733 0.213 0 3.285-0.469 8.277-1.152-2.304 5.12-4.011 9.003-6.272 13.952 4.096 0.597 7.509 1.067 11.947 1.707-1.579 3.413-3.029 6.571-4.821 10.581 2.56 0.981 5.12 2.005 5.675 2.219 3.285 9.771 5.803 18.475 9.088 26.795 6.272 16.085 13.184 31.787 25.685 44.459 1.963 2.005 0.256 7.637 0.256 11.819 11.051 15.061 25.045 29.269 27.648 50.688 2.859-0.171 6.741-0.427 12.331-0.853-3.584 6.272-6.272 10.965-8.96 15.659 0.896 0.853 1.835 1.664 2.773 2.56 5.205-2.901 10.453-5.76 17.067-9.429-19.029-41.984-36.608-83.84-56.832-124.501-19.797-39.893-44.373-77.397-60.501-119.040 1.408-0.939 2.816-1.92 4.224-2.859 2.005 1.963 4.693 3.584 5.931 5.931 22.656 43.307 45.739 86.4 67.541 130.176 16.384 32.811 30.805 66.603 46.635 99.627 16 33.451 32.725 66.432 48.896 99.712 12.501 25.771 24.747 51.669 37.163 77.483 2.304 4.907 4.395 10.837-3.157 11.563-3.285 0.341-8.747-4.437-10.368-8.021-7.339-16.768-13.099-34.176-20.48-50.859-10.496-23.808-21.76-47.232-33.067-70.699-5.675-11.648-11.861-23.211-18.688-34.304-1.749-2.731-6.912-3.413-10.453-5.077-0.512 1.195-1.024 2.389-1.579 3.541 6.101 12.971 12.16 25.941 19.243 41.003-0.469 0.683-2.432 3.669-4.395 6.656 8.192 25.472 33.152 44.629 29.355 77.568-4.011-3.072-7.552-4.608-9.173-7.296-5.675-9.387-11.264-18.816-15.787-28.757-4.48-9.771-21.76-15.275-30.464-8.704-2.944 2.219-5.632 4.821-8.533 7.381 14.421 7.851 28.629 15.573 42.837 23.296-0.64 1.579-1.28 3.157-1.92 4.693-5.205-1.024-10.325-2.133-15.573-3.157-0.683 0.853-1.323 1.664-2.048 2.517 2.304 2.389 4.181 5.717 6.955 6.912 21.547 9.387 43.392 18.261 64.939 27.563 2.005 0.896 2.987 4.181 4.437 6.272-2.261 1.536-4.437 4.011-6.827 4.309-2.688 0.341-6.144-0.683-8.363-2.304-22.955-16.341-50.389-22.101-75.733-32.683-29.909-12.501-59.136-26.539-88.875-39.552-8.021-3.541-16.981-4.949-24.96-8.533-27.904-12.629-55.509-25.856-83.371-38.613-4.565-2.133-9.771-2.901-14.677-4.309-0.768 0.981-1.579 2.048-2.347 3.115 7.893 13.483 15.787 26.965 23.68 40.405-24.32-9.984-27.051-36.736-43.349-52.864 0.469-1.28 0.939-2.645 1.451-3.925 5.675 0.683 11.776 0.341 17.024 2.261 25.301 9.173 50.56 18.56 75.477 28.587 13.952 5.675 27.221 12.928 40.96 18.987 1.835 0.811 4.821-0.981 7.253-1.579-1.408-2.219-2.261-5.547-4.267-6.443-15.317-6.827-30.763-13.525-46.421-19.456-33.749-12.8-67.627-25.003-101.333-37.845-2.517-0.896-3.584-5.163-5.76-7.381-3.541-3.627-6.955-8.363-11.349-9.856-5.12-1.664-11.264-0.384-18.133-0.384 0.299 1.237 0.043 4.949 1.664 6.101 17.451 12.501 23.936 33.024 36.693 48.853 7.509 9.387 17.963 16.299 26.027 25.259 6.357 7.040 11.264 15.488 16.512 23.552 2.901 4.437 5.931 9.173 7.424 14.208 1.195 4.224 0.213 9.003 0.213 16.896-10.88-6.955-14.037-30.592-29.824-9.771 4.779 1.28 9.088 2.475 13.44 3.627 0.128 1.365 0.256 2.645 0.384 3.968-6.528 1.28-13.099 2.517-19.285 3.712-7.595-20.48 1.152-42.197-9.003-60.203-1.792 0.043-3.499 0.128-5.291 0.256-0.939 15.957-1.877 31.915-2.773 47.872-1.365 0-2.773-0.043-4.139-0.043-12.117-19.115 3.413-43.52-8.704-62.635-1.493 0.043-2.987 0.128-4.437 0.171 0 17.621 0 35.243 0 52.821-1.579 0.043-3.115 0.085-4.693 0.128-12.672-24.789 1.109-54.101-9.771-79.147-1.451 0.043-2.859 0.128-4.309 0.171 0 21.248 0 42.496 0 66.944-15.403-15.659-22.443-29.781-21.675-48.341 0.768-18.176-1.109-36.48-1.877-54.784-1.792 0.043-3.627 0.043-5.461 0.043 0 25.216 0 50.475 0 75.648-1.792 0-3.541 0.043-5.333 0.085-6.827-22.869-1.749-47.232-8.021-70.571-0.896 15.957-1.792 32-2.731 48-2.133-0.043-4.309-0.085-6.485-0.128 0-27.307 0-54.528 0-81.835-2.432 0-4.864 0-7.253-0.043 0 20.821 0 41.685 0 62.507-2.304 0-4.565 0-6.869 0 0-25.301 0-50.56 0-75.819-2.261-0.043-4.523-0.085-6.741-0.128-1.024 23.979-2.048 48-3.072 72.021-1.749 0.085-3.499 0.171-5.205 0.299-0.981-11.52-1.963-22.997-3.072-35.413-2.517 2.859-4.693 5.333-9.259 10.368-0.896-6.997-1.963-11.179-1.877-15.275 0.256-20.693 1.195-41.387 1.067-62.037 0-4.949 3.84-13.611-7.509-13.44-9.301 0.128-12.245 3.84-11.605 13.227 0.939 13.44 0.256 27.051 0.256 40.576-2.261 0.128-4.523 0.256-6.741 0.341-1.024-11.733-2.091-23.552-3.115-35.328-0.896 0.043-1.792 0.043-2.688 0.085 0 30.464 0 60.8 0 91.264-1.195 0.256-2.389 0.512-3.584 0.811-1.109-4.181-2.987-8.235-3.285-12.416-1.195-17.707-1.792-35.371-2.859-53.035-0.213-3.584-1.493-7.125-2.261-10.709-1.237 0.085-2.475 0.085-3.755 0.171 0 28.117 0 56.235 0 84.395-1.579 0.171-3.157 0.341-4.736 0.512-1.792-7.040-3.499-14.080-5.248-21.12-1.024 0.043-2.048 0.128-3.072 0.171 0 12.288 0 24.533 0 36.779-1.365 0.085-2.731 0.128-4.096 0.213-8.917-20.736-3.413-43.307-4.224-64.981-1.024 0.043-2.048 0.043-3.115 0.085 0 27.52 0 55.040 0 82.56-0.896 0.683-1.749 1.28-2.56 2.005-8.789-10.027-29.696-0.725-31.616-22.4-0.683 13.995-1.408 27.989-2.133 42.069-2.048 0-4.096 0-6.144 0-0.597-12.715-1.152-25.429-1.707-38.101-1.067 0-2.176 0-3.285 0 0 14.208 0 28.373 0 42.539-1.877 0.085-3.755 0.171-5.675 0.256-1.28-12.672-2.603-25.301-3.84-37.931-0.64-0.043-1.195-0.085-1.792-0.085 0 18.773 0 37.632 0 56.448-0.981 0.853-1.963 1.621-2.944 2.389-7.424-8.021-14.848-16.085-23.851-25.813 1.024 10.923 1.28 21.461 3.541 31.488 0.555 2.432 7.808 4.693 11.989 4.693 41.173 0.128 82.389 0.085 123.563-0.469 26.027-0.341 52.011-2.261 77.995-2.091 10.283 0.043 20.523 3.627 30.507 7.296-6.827 8.533-13.995 7.68-21.589 4.053-5.291-2.517-11.093-6.443-13.525 3.584-0.341 1.365-4.096 2.901-6.144 2.773-19.243-1.237-38.699-5.504-57.429-3.243-11.307 1.365-19.968-2.176-29.781-3.072-14.592-1.323-29.696 3.541-44.629 4.48-9.344 0.597-18.859-1.109-29.312-1.835-2.688 8.235-7.296 11.648-13.184-0.341-6.528 9.6-6.528 9.6-15.957 4.651-5.163-0.341-10.283-0.683-17.749-1.152-7.040 6.741-35.243 4.565-44.672-6.997 3.115-0.768 6.485-0.597 8.107-2.219 2.261-2.219 5.291-6.699 4.437-8.576-6.229-13.312-1.195-23.979 7.296-33.365 14.72-16.085 29.952-31.659 42.155-49.963 13.355-19.968 27.264-39.595 41.045-59.221 15.616-22.229 30.891-44.757 47.403-66.261 7.296-9.472 17.109-17.152 26.411-24.96 2.261-1.877 6.997-0.768 10.581-1.024 1.963-12.544 3.115-12.843 13.099-5.76 2.176 1.579 5.675 1.237 8.619 1.749-0.597-2.944-0.213-6.955-2.048-8.747-5.035-4.949-11.691-8.405-16.384-13.653-2.389-2.645-4.139-9.557-2.475-11.776 7.168-9.6-1.835-15.317-4.267-22.528-0.256-0.725-5.248-1.109-6.485 0-2.816 2.688-6.827 6.528-6.528 9.643 1.92 22.528-3.968 41.941-19.285 59.051-16.981 18.987-31.957 39.936-49.664 58.24-13.611 14.037-31.659 24.021-44.757 38.485-9.685 10.667-26.667 13.141-30.976 29.099-0.384 1.237-2.389 2.56-3.84 2.944-10.539 2.901-21.12 5.675-31.744 8.448-1.195 0.341-2.901 0.213-3.584 0.981-17.024 18.645-42.197 22.229-63.445 32.597-19.243 9.387-42.496 10.752-64 15.445-5.291 1.152-11.093 0.811-15.957 2.901-23.595 9.899-46.763 20.736-70.357 30.72-11.861 5.035-24.491 11.179-35.2-4.864-6.272 12.715-11.776 23.808-18.048 36.48 6.955-0.64 12.288-1.067 17.621-1.536 0.64 1.579 1.237 3.157 1.877 4.779-7.339 3.072-14.677 6.229-22.016 9.387-1.963-5.248-6.955-11.648-5.376-15.531 6.101-15.616 13.952-30.592 21.632-45.483 1.237-2.389 6.656-5.419 7.211-4.907 11.605 10.411 16.085-1.493 20.053-7.467 8.875-13.141 16.213-27.392 23.808-41.387 6.059-11.307 11.691-22.869 17.28-34.432 1.067-2.304 0.896-5.12 1.536-7.595 1.195-4.608 1.451-9.941 4.053-13.653 9.941-13.909 16.213-29.355 23.467-44.629 6.613-13.952 11.947-34.859 36.352-34.304-0.469-1.109-0.896-2.261-1.365-3.328-4.096-2.091-8.235-4.224-14.763-7.552 5.675-4.693 10.197-8.363 15.317-12.672-4.608-18.688 6.229-33.536 14.763-49.451 10.24-19.243 20.011-38.741 29.099-58.539 10.197-22.187 19.499-44.843 29.013-67.243 1.195-2.901 1.664-6.101 2.432-9.173-1.323-0.768-2.645-1.493-3.968-2.261-5.376 8.448-11.179 16.683-16.043 25.429-2.987 5.376-4.437 11.563-6.912 17.195-3.797 8.747-8.192 17.195-11.904 25.984-6.955 16.469-13.269 33.152-20.48 49.493-2.773 6.229-7.893 11.435-11.051 17.493-7.595 14.72-14.635 29.611-21.845 44.459-2.517 5.205-4.992 10.453-7.381 15.659-10.88 23.979-21.291 48.213-32.725 71.851-8.277 17.195-17.877 33.707-27.008 50.475-7.083 12.928-14.293 25.771-21.333 38.613-1.237 2.176-1.792 4.608-2.645 7.040-1.877-1.195-3.755-2.432-5.632-3.541 1.408-5.12 2.005-10.667 4.395-15.275 12.075-23.211 25.003-45.909 36.779-69.248 8.704-17.152 16-35.029 24.064-52.48 5.547-12.203 11.605-24.149 16.939-36.437 7.125-16.384 13.44-33.152 20.736-49.451 4.267-9.557 10.752-18.048 14.549-27.648 6.571-16.683 11.776-33.92 17.621-50.859 0.939-2.773 1.963-5.547 3.371-8.107 17.109-31.403 34.347-62.805 51.499-94.123 0.981-1.877 1.493-4.437 2.987-5.504 2.645-1.835 5.973-2.688 9.003-4.011 0.341 3.115 1.963 6.912 0.811 9.216-2.475 4.565-6.443 8.32-10.027 12.672 11.435 12.8 18.048 0.341 22.997-5.547 2.176-7.723 4.011-15.445 6.656-22.955 4.864-13.653 10.24-27.136 15.829-41.728-6.144-1.237-10.112-2.005-15.275-3.072 2.048 3.456 3.541 5.931 5.76 9.643-5.291 0.555-9.045 0.896-14.72 1.493 3.797 4.267 6.4 7.168 10.027 11.264-4.139 3.499-7.808 6.656-11.264 9.643-15.104-26.368 6.315-42.709 14.507-61.696 12.373-28.544 27.52-55.851 41.813-83.584 18.304-35.584 36.864-71.040 55.467-106.496 4.352-8.235 9.899-15.445 18.347-19.328 0.981 0.896 1.963 1.707 2.987 2.603-2.389 3.499-4.907 6.912-7.040 10.581-4.565 7.68-9.557 15.189-13.141 23.339-5.461 12.416-9.6 25.344-14.763 37.888-2.56 6.272-5.589 12.459-9.429 18.005-2.304 3.371-6.485 5.419-10.496 8.619 0.64 1.579 1.707 4.181 3.157 7.808-3.541 0.939-6.741 1.835-10.24 2.773 0.128 1.792-0.213 3.584 0.384 4.011 9.173 6.528 5.163 10.709-1.536 16.341-5.077 4.309-9.387 10.325-12.032 16.427-4.267 9.941-5.845 21.205-10.624 30.848-4.48 9.216-11.691 17.067-18.773 27.051 25.728 26.581 64.299 35.115 94.592 57.984-16.811-6.016-33.664-11.989-50.475-18.005 9.941 13.611 31.104 15.189 32.512 36.608-17.067-5.632-34.304-11.392-51.541-17.067-0.512 0.981-1.067 1.92-1.621 2.816 15.829 9.045 31.616 18.176 47.403 27.264-0.341 0.768-0.725 1.536-1.067 2.347-14.933-5.76-29.824-11.477-44.715-17.195-0.427 0.768-0.896 1.493-1.28 2.261 6.443 4.651 13.141 9.045 19.328 14.037 12.032 9.685 23.723 19.584 35.584 29.397-0.512 0.939-1.024 1.92-1.536 2.901-6.528-2.901-13.184-5.504-19.541-8.789-14.592-7.595-28.928-15.701-43.52-23.296-3.413-1.749-7.637-2.048-11.477-3.029-0.64 1.493-1.28 2.944-1.92 4.437 18.944 11.349 37.973 22.656 56.917 33.963-0.768 1.707-1.493 3.371-2.261 5.035-14.549-4.907-29.099-9.813-43.648-14.763-0.427 0.597-0.896 1.237-1.28 1.835 10.027 6.827 19.712 14.379 30.251 20.309 7.936 4.437 12.288 9.045 8.533 18.773-18.944-10.24-37.888-20.48-56.832-30.72-0.896 1.621-1.792 3.243-2.645 4.864 14.464 7.595 28.928 15.147 44.416 23.296-1.877 2.091-3.541 3.925-5.461 6.101 4.224 3.797 8.448 7.637 12.629 11.392-0.341 0.555-0.725 1.109-1.109 1.707-12.245-6.315-24.491-12.629-36.693-18.944-5.589-2.901-11.051-6.229-16.896-8.619-2.048-0.896-5.077 0.64-7.637 0.981 1.152 2.304 1.707 5.547 3.541 6.699 11.136 6.869 22.997 12.629 33.707 20.011 6.443 4.437 11.307 11.136 16.896 16.853-0.896 1.152-1.792 2.432-2.645 3.584-20.608-9.045-41.173-18.048-61.739-27.008-0.469 0.981-0.939 2.005-1.365 3.029 13.269 15.232 38.955 13.483 48.64 34.091 13.184-2.261 16.896 0.555 20.395 13.483 1.92 7.083-0.64 7.979-6.699 11.264-16.341 8.789-26.923-3.371-39.424-8.064-9.6-3.669-18.645-8.619-30.549-14.208 7.68 18.645 34.176 14.848 34.901 40.021-10.069-4.651-17.408-8.192-24.875-11.477-6.997-3.029-14.123-5.845-21.163-8.661-0.939 1.835-1.835 3.712-2.816 5.589 15.573 8.448 31.189 16.896 46.805 25.344-19.115 1.237-34.517-14.080-53.163-13.867-0.64 1.749-1.28 3.541-1.963 5.291 18.688 9.899 37.376 19.84 56.064 29.739-0.939 1.877-1.877 3.712-2.816 5.504-17.323-8.064-34.603-16.256-49.792-23.381-5.376 5.632-9.429 9.856-15.445 16.213 5.803 4.821 12.928 10.752 20.096 16.683-0.512 0.896-0.981 1.792-1.493 2.688-8.576-3.541-17.109-7.125-25.685-10.709-0.597 0.768-1.152 1.451-1.749 2.176 12.331 9.216 24.661 18.475 36.949 27.605-0.469 0.683-0.939 1.28-1.365 1.92-7.509-1.237-15.019-2.475-22.571-3.712-0.512 1.451-1.024 2.859-1.493 4.352 10.965 6.912 21.973 13.867 32.939 20.736-0.597 1.195-1.195 2.347-1.792 3.499-10.667-4.779-21.291-9.6-31.915-14.379-0.384 0.469-0.768 0.896-1.152 1.365 11.136 8.107 22.229 16.256 33.365 24.405-0.512 1.067-1.067 2.176-1.664 3.285-18.688-10.539-37.419-21.077-56.149-31.616-0.981 1.707-2.048 3.413-3.029 5.077 13.952 9.728 27.904 19.371 41.899 29.099-0.683 1.195-1.323 2.432-1.963 3.627-15.019-8.661-29.995-17.323-45.013-25.941-1.109 1.835-2.219 3.712-3.285 5.589 17.408 11.179 34.859 22.229 52.267 33.408-0.683 1.237-1.365 2.56-2.048 3.883-18.347-9.429-36.608-18.731-54.955-28.117-0.683 1.195-1.365 2.432-2.048 3.584 18.219 11.477 36.48 22.869 54.741 34.347-0.256 1.067-0.469 2.219-0.725 3.328-10.069 2.731-20.139 5.547-30.507 8.405-11.563-5.675-23.893-11.691-36.181-17.749-0.896 1.493-1.792 3.029-2.645 4.48 3.541 2.901 6.997 6.187 10.795 8.747 10.496 7.083 20.779 14.549 31.829 20.651 6.443 3.627 8.619 6.869 5.589 13.781-3.627 8.235-8.576 4.096-13.44 2.048-1.451-0.555-2.944-1.024-5.547 0.171 6.229 3.925 12.459 7.851 18.731 11.733-0.555 1.365-1.152 2.731-1.749 4.181-8.448-2.859-16.896-5.803-25.387-8.619-11.648-7.893-23.253-15.787-34.901-23.637-1.024 1.792-2.048 3.627-3.072 5.419 13.013 5.931 25.813 11.861 38.528 17.877zM840.704 945.963c11.307 6.571 21.888 12.757 32.427 18.901 4.736 0.939 8.533 3.755 12.757 4.992 3.797 1.109 8.107 0.555 12.203 0.768-17.237-18.176-50.645-30.635-57.387-24.661zM640.512 820.181c1.408 1.493 2.773 3.029 4.181 4.565 9.557-8.96 19.072-17.963 28.587-26.923-1.067-1.195-2.219-2.389-3.328-3.627-9.813 8.704-19.584 17.323-29.44 25.984zM523.904 831.744c1.024-0.043 2.091-0.085 3.115-0.085 0.853-15.019 1.664-29.995 2.517-45.013-0.768-0.043-1.493-0.085-2.261-0.085-1.152 15.061-2.261 30.165-3.371 45.184zM563.371 774.613c-1.493 1.195-2.987 2.389-4.48 3.541 5.333 6.869 10.709 13.739 16.085 20.608 0.853-0.768 1.707-1.536 2.56-2.304-4.779-7.253-9.472-14.592-14.165-21.845zM251.861 540.715c1.195 1.024 2.432 2.133 3.627 3.2 3.84-5.077 7.68-10.155 11.52-15.147-1.365-1.237-2.731-2.517-4.139-3.669-9.387-0.128-5.803 11.861-11.008 15.616zM116.48 937.643c-0.725-1.792-1.408-3.584-2.133-5.376-8.789-6.016-9.941 7.253-15.744 8.875 0.427 1.109 0.853 2.219 1.28 3.243 5.547-2.261 11.093-4.565 16.597-6.741zM88.661 953.088c-0.768-2.133-1.579-4.224-2.347-6.357-5.632 2.645-11.349 5.291-17.024 7.936 0.64 1.536 1.237 3.072 1.877 4.565 5.845-2.048 11.648-4.139 17.493-6.144zM559.317 352.341c-0.896-0.896-1.792-1.835-2.731-2.688-7.595 6.741-15.189 13.483-22.827 20.309 1.067 1.109 2.091 2.261 3.115 3.371 7.509-7.040 14.976-14.037 22.443-20.992z"></path>
	<path class="path2" d="M509.483 371.84c-16.043-0.725-31.488-18.688-32.597-33.621-0.597-8.363-5.76-17.664-11.563-24.149-5.205-5.845-15.232-2.517-16.256 4.309-2.005 13.355-9.6 8.96-16.299 7.211-6.869-1.835-13.355-5.035-20.139-7.424-6.571-2.432-13.269-4.651-19.883-6.955-0.64 1.28-1.28 2.688-1.92 4.011 19.584 9.6 39.168 19.072 60.245 29.355-27.52 3.883-47.488-13.013-69.803-21.163-0.725 1.579-1.408 3.115-2.091 4.693 21.931 11.392 43.819 22.741 65.749 34.176-0.427 1.152-0.853 2.389-1.28 3.541-25.003-7.467-50.005-14.848-75.008-22.272-0.555 0.853-1.067 1.707-1.664 2.56 20.139 11.392 40.32 22.699 60.459 34.005-0.555 1.664-1.109 3.328-1.664 4.992-9.813-2.304-19.968-3.755-29.397-7.083-13.952-4.992-27.349-11.349-40.96-17.152-0.555 1.28-1.067 2.517-1.621 3.755 17.152 10.453 34.304 20.992 51.456 31.488-0.469 1.92-0.939 3.797-1.408 5.717-4.779 0-10.069 1.365-14.208-0.256-12.245-4.821-24.021-10.88-35.968-16.427-0.768 1.237-1.536 2.56-2.261 3.883 15.019 10.624 30.123 21.333 45.184 31.957-0.981 1.579-1.92 3.115-2.816 4.693-22.229-2.219-37.973-19.157-53.845-24.661 0-12.459-0.128-21.163 0.085-29.867 0.043-1.963 0.981-4.053 1.963-5.845 19.712-36.651 39.851-73.131 59.093-110.037 5.077-9.685 10.24-11.648 19.627-6.613 18.389 9.856 37.077 19.115 55.637 28.629-0.213 1.152-0.427 2.347-0.597 3.541-9.728 2.432-19.541 7.125-29.099 6.613-9.941-0.555-19.541-6.187-29.355-9.6-0.597 1.365-1.195 2.688-1.792 4.011 20.864 10.837 41.728 21.632 62.592 32.469 0.768-1.067 1.579-2.219 2.347-3.328-1.536-4.779-3.115-9.6-4.864-14.976 6.784 1.493 12.288 2.688 17.707 3.925-2.091-5.376-4.224-10.709-6.613-16.811 1.664-1.664 4.693-4.651 7.765-7.68-3.499-2.901-6.613-6.955-10.667-8.619-17.024-7.040-34.475-13.141-51.499-20.139-15.445-6.357-19.243-14.72-12.544-30.763 8.448-20.181 18.389-39.723 27.435-59.605 4.48-9.899 8.235-20.096 12.672-30.037 4.309-9.557 8.235-19.413 13.995-27.989 2.005-3.115 8.747-3.115 13.397-4.48-1.109 4.053-2.005 8.064-3.371 11.989-0.512 1.451-2.091 2.517-3.2 3.797 8.277 8.149 8.277 8.149 15.957-5.12 0.427 6.912 0.853 13.781 1.451 23.296-9.771-4.139-16.768-7.083-23.723-9.984-0.811 0.939-1.579 1.92-2.389 2.859 2.517 3.499 5.035 6.997 8.021 11.179-3.797 0-7.467 0-11.563 0 4.523 9.771 17.152 17.195 23.637 14.72 35.712-13.525 32.896-9.259 23.808-41.344 3.584-1.408 7.253-2.859 13.269-5.291-0.811 6.101-1.408 10.325-2.048 15.104 2.603 1.579 5.419 3.157 8.021 4.608 1.451 13.781 2.859 17.493 7.339 22.229-5.717 0-11.477 0-18.432 0 1.877 3.029 3.84 6.187 6.315 10.197-9.472 8.619-18.304 19.499-29.611 25.984-6.272 3.541-16.939 0.512-25.344-1.024-7.168-1.365-13.909-4.949-22.443-8.107 10.795 18.645 34.475 24.107 50.048 13.611 9.771-6.571 19.797-12.757 29.824-18.987 0.853-0.555 2.347-0.085 7.808-0.085-13.269 10.112-23.723 18.048-34.048 26.112-5.76 4.437-12.032 8.875-6.187 16.213 11.136-10.155 22.229-20.309 33.365-30.464 1.195 1.28 2.432 2.603 3.627 3.84-7.509 6.955-15.019 13.909-22.485 20.907 0.896 1.067 1.749 2.219 2.645 3.328 8.235-6.4 18.731-11.392 24.064-19.627 4.736-7.467 3.755-18.688 5.632-30.037 11.904 15.275 28.501 25.045 21.205 49.664 8.235-5.589 12.757-8.661 15.659-10.581-26.965-59.349-53.333-117.077-79.616-174.891 1.963-0.896 3.968-1.835 6.016-2.731 17.195 39.595 33.109 79.787 51.883 118.613 19.029 39.381 40.832 77.355 61.44 115.968-1.109 0.896-2.176 1.749-3.285 2.603-4.736-6.571-9.472-13.184-15.787-22.016-3.285 23.424 6.827 40.277 14.464 57.771 1.451 3.2 3.499 6.357 3.84 9.771 0.896 7.893 0.555 7.893 9.259 8.277-0.128 15.701 5.419 23.936 16.896 22.144-8.021-18.688-15.957-37.12-23.893-55.595 1.792-0.811 3.541-1.579 5.333-2.389 51.584 103.68 103.168 207.317 154.709 310.997-1.067 0.811-2.176 1.493-3.243 2.261-2.688-3.115-6.101-5.845-7.936-9.429-17.237-32.896-34.517-65.707-51.2-98.859-22.101-44.032-43.563-88.32-65.536-132.437-1.707-3.413-4.949-6.059-7.595-9.216-10.837 10.795-0.768 18.389 3.243 23.808 13.397 18.005 23.851 43.435 26.539 62.805 4.693 8.747 11.904 16.896 13.483 26.112 3.456 19.499 14.72 33.877 25.6 48.981 4.992 6.869 9.131 14.336 12.203 22.485 6.613 3.84 9.941 7.979 7.893 17.237-0.811 3.712 5.205 9.813 9.301 13.44 4.523 4.053 10.155 22.144 5.717 25.771-2.347 1.963-10.197 1.749-11.221-0.043-13.44-23.211-26.411-46.763-38.912-70.443-7.595-14.379-13.867-29.483-21.333-43.989-13.397-26.069-27.776-51.712-40.661-78.080-12.459-25.515-23.808-51.669-35.157-77.696-5.632-13.099-9.259-27.051-15.488-39.765-11.861-24.149-24.832-47.744-37.589-71.467-0.896-1.664-4.949-3.669-5.888-3.072-13.312 8.619-26.667 17.365-36.608 29.909 0.853 1.109 1.664 2.304 2.517 3.413 11.648-8.405 23.253-16.811 34.859-25.216 0.896 1.195 1.749 2.347 2.645 3.541-15.403 12.928-30.848 25.813-46.293 38.741 0.811 1.451 1.664 2.901 2.517 4.352 13.013-6.955 26.069-13.909 40.747-21.76 1.579 7.509 2.901 13.995 4.48 21.675-9.728 8.021-20.267 16.768-30.763 25.557 0.853 1.195 1.707 2.432 2.603 3.627 10.624-8.448 21.205-16.896 31.787-25.429 0.768 0.896 1.493 1.877 2.261 2.773-8.405 7.637-16.768 15.189-25.173 22.784 0.896 1.152 1.835 2.389 2.731 3.541 7.083-4.011 14.123-7.936 21.248-11.904 0.597 0.811 1.109 1.579 1.707 2.389-10.453 9.088-20.907 18.091-31.36 27.136 1.024 1.365 2.048 2.688 3.115 4.053 12.928-9.771 25.899-19.456 38.912-29.184 0.939 1.195 1.877 2.475 2.816 3.669-8.619 7.296-17.195 14.677-25.813 22.059 0.512 0.725 1.067 1.408 1.579 2.133 9.003-6.315 18.091-12.672 27.136-18.987 0.725 0.896 1.451 1.792 2.133 2.645-10.027 9.429-20.053 18.773-30.080 28.245 0.512 0.64 1.024 1.195 1.579 1.877 4.011-1.493 8.021-3.029 12.075-4.523 0.384 0.597 0.768 1.195 1.152 1.749-6.912 6.059-13.781 12.032-20.693 18.091 0.64 0.896 1.28 1.877 1.92 2.816 9.003-5.163 18.005-10.325 27.008-15.488 0.213 0.341 0.427 0.725 0.597 1.067-20.523 19.029-41.088 38.059-61.653 57.088l0.256-0.341zM491.605 227.072c-13.312 12.715-22.059 0.555-31.445-2.517-10.069-3.243-19.499-8.533-29.184-12.971-0.853 2.091-1.664 4.267-2.475 6.315 19.84 9.771 36.096 28.587 63.104 22.101 0-3.797 0-7.424 0-12.928zM489.472 221.056c0.725-1.152 1.451-2.347 2.133-3.499-4.096-8.064-42.24-24.96-53.888-19.968 17.28 7.765 34.517 15.616 51.755 23.467zM589.397 197.163c-1.579 0.213-3.2 0.469-4.736 0.725 0 9.173 0 18.347 0 28.288 2.859 0.811 5.973 2.133 9.216 2.56 6.869 0.981 9.771-2.688 7.211-8.832-3.243-7.808-7.723-15.189-11.691-22.741zM461.611 152.619c-0.811 1.749-1.579 3.499-2.304 5.248 10.795 4.992 21.632 9.984 32.469 15.019 0.939-2.261 1.963-4.48 2.944-6.741-11.093-4.523-22.101-9.003-33.109-13.525zM493.312 335.787c-1.621 0.213-3.243 0.469-4.864 0.683 0.341 5.333 0.683 10.752 0.939 16.128 5.12-2.688 10.155-5.504 17.579-9.515-7.253-3.925-10.453-5.632-13.653-7.296z"></path>
	<path class="path3" d="M262.144 913.408c32-21.163 74.539-22.869 101.035-54.571 1.408 16.896-8.448 27.051-17.451 37.931-8.747 10.624-16.939 21.76-25.387 32.768-3.285 4.224-6.485 8.619-9.813 12.928-7.851 10.069-15.744 20.181-23.552 30.251-3.029 3.925-6.571 7.595-8.619 11.989-1.92 4.224-2.176 9.131-3.157 13.824 3.968 0.768 8.021 2.176 12.032 2.176 9.771-0.085 19.499-0.768 29.312-1.195 0.427 1.28 0.896 2.645 1.323 4.011-2.645 1.792-5.035 4.608-7.851 5.12-10.24 1.664-20.565 3.072-30.891 3.584-13.013 0.597-20.523-10.624-13.483-21.717 15.488-24.448 32.341-47.915 48.64-71.851 5.163-7.552 10.283-15.147 13.952-25.685-21.248 8.704-42.453 17.408-63.659 26.069-0.853-1.835-1.664-3.712-2.432-5.632z"></path>
	<path class="path4" d="M504.448 0.213c-12.075 24.448-24.277 47.616-34.987 71.467-9.472 20.949-16.768 42.88-26.155 63.915-6.187 13.781-14.891 26.411-21.76 39.979-3.584 6.997-5.632 14.848-9.088 24.235-8.917-4.949-8.661-11.179-4.992-18.475 14.037-27.648 28.416-55.125 41.984-83.029s26.283-56.235 39.424-84.437c3.499-7.467 6.912-15.232 15.573-13.653z"></path>
	<path class="path5" d="M606.208 1013.163c-12.416 0-20.821 0.128-29.269 0-38.229-0.811-76.416-1.621-114.645-2.432-1.707-0.043-3.925 0.896-4.907 0.085-2.645-2.091-4.779-4.864-7.125-7.339 2.859-1.792 5.717-5.077 8.491-4.992 19.883 0.683 39.765 2.389 59.605 2.901 7.339 0.213 14.848-3.072 22.101-2.432 18.56 1.664 36.992 4.565 55.424 7.381 2.645 0.427 4.907 3.157 10.325 6.827z"></path>
	<path class="path6" d="M412.416 1008.896c-20.992 6.4-83.157 5.931-89.899-0.939 11.989-0.981 22.059-1.92 32.085-2.603 10.453-0.725 21.12-2.603 31.275-1.28 8.704 1.024 19.584-3.712 26.539 4.821z"></path>
	<path class="path7" d="M143.275 961.024c-28.587 10.325-55.168 19.925-81.707 29.525 10.24-15.659 68.139-36.139 81.707-29.525z"></path>
	<path class="path8" d="M617.685 1010.304c24.917-9.771 47.36 0.64 71.637-4.181-8.021 11.563-53.205 13.269-71.637 4.181z"></path>
	<path class="path9" d="M165.035 945.28c22.101-11.563 44.587-22.101 69.845-25.173 0.597 1.536 1.152 3.115 1.707 4.693-23.253 8.448-46.507 16.896-69.76 25.387-0.597-1.707-1.195-3.285-1.792-4.907z"></path>
	<path class="path10" d="M389.76 446.549c-20.608-10.496-41.216-20.949-61.824-31.488 0.939-1.877 1.92-3.712 2.859-5.547 22.784 6.187 40.96 21.461 61.525 31.957-0.811 1.749-1.707 3.413-2.56 5.077z"></path>
	<path class="path11" d="M882.261 901.504c-7.168 2.987-14.421 5.803-21.504 8.96-6.571 2.859-12.928 6.101-20.907 9.856 2.176-13.44 21.547-25.472 43.776-28.885-0.683 3.925-1.237 7.168-1.792 10.453 0.043 0.043 0.427-0.384 0.427-0.384z"></path>
	<path class="path12" d="M479.104 525.483c2.645 11.648 5.333 23.296 7.936 34.859-12.373 2.133-18.944-4.395-17.024-16.213 0.981-6.016 0.171-12.288 0.171-19.883 3.115 0.427 6.144 0.853 9.088 1.195h-0.171z"></path>
	<path class="path13" d="M490.667 76.373c2.603 4.053 4.437 6.912 6.229 9.771-0.896 0.896-1.749 1.835-2.645 2.773-3.115-2.859-7.808-5.205-8.832-8.661-0.853-2.773 2.347-9.685 4.395-9.899 5.248-0.683 11.563 0.043 16 2.645 4.565 2.731 7.339 8.363 12.331 14.421-1.024 1.835-3.072 5.419-4.992 8.747-10.411-4.267-6.613-21.12-22.485-19.797z"></path>
	<path class="path14" d="M704.213 942.208c7.467 11.947 14.933 23.979 22.656 36.395-13.099 1.749-28.203-19.968-22.656-36.395z"></path>
	<path class="path15" d="M487.68 590.251c-16-3.115-17.835-15.872-20.437-28.544 14.549 2.176 22.229 12.971 20.437 28.544z"></path>
	<path class="path16" d="M738.859 991.317c4.608 5.931 9.643 11.605 13.483 18.005 0.725 1.195-2.773 6.827-5.163 7.595-2.56 0.768-8.277-1.237-8.875-3.243-1.963-6.4-2.304-13.355-3.243-20.139 1.28-0.683 2.56-1.451 3.797-2.219z"></path>
	<path class="path17" d="M479.317 525.483c-3.285-4.565-8.533-8.363-2.133-15.019 1.536-1.621-1.067-7.253-2.517-14.891 6.955 5.547 11.648 9.344 16.981 13.568-4.821 6.101-8.747 11.179-12.629 16.256 0.085 0.085 0.299 0.085 0.299 0.085z"></path>
	<path class="path18" d="M711.936 1008.213c6.229 1.28 12.459 2.56 20.949 4.267-11.136 9.301-14.72 8.789-20.949-4.267z"></path>
</symbol>
<symbol id="icon-thrillderness" viewBox="0 0 5077 1024">
	<title>Thrillderness</title>
	<path class="path1" d="M1525.973 225.195c34.816 0 63.957-29.141 63.957-64 0-34.816-29.141-64-63.957-64s-64 29.184-64 64c0.043 34.859 29.184 64 64 64z"></path>
	<path class="path2" d="M797.184 266.112c-32.768 0-69.76 19.84-95.275 43.52l30.464-148.48 101.163 16.555c156.885 25.472 480.768 72.789 521.344-83.243-35.627 29.355-77.141 36.864-120.661 36.864-255.189 0-539.947-131.328-794.027-131.328-192.853 0-370.347 54.827-435.285 192.768 66.091-51.925 198.229-69.888 302.848-69.888 13.269 0 26.496 0.128 39.467 0.427l-93.952 562.645c-11.904 40.832-44.587 73.856-44.587 73.856l-1.109 12.928h188.117l1.109-12.928c0 0-19.627-27.563-16.213-45.525l-0.555-0.128 107.648-583.936c28.373 2.176 45.995 3.968 45.995 3.968 17.877 1.877 39.893 4.267 62.037 6.869l-90.112 539.349-0.683-0.085c-10.368 43.435-46.165 79.488-46.165 79.488l-1.152 12.928h188.16l1.109-12.928c0 0-18.304-25.728-16.427-43.605l37.376-214.741c14.208-82.219 40.192-112.469 83.029-112.469 46.293 0 55.253 23.595 55.253 71.851 0 12.288-0.939 26.453-3.797 43.477l-47.232 268.373h7.083v0.043h150.4l1.067-12.928c0 0-19.627-27.563-16.171-45.525l-1.621-0.597 38.784-220.757c3.797-24.533 6.656-51.925 6.656-72.789 0.043-99.243-37.291-154.027-144.085-154.027z"></path>
	<path class="path3" d="M2081.579 116.352h-9.301l0.299-3.627h-153.813l-1.109 12.843c0 0 11.435 16.085 15.317 31.659l-87.381 523.179-0.256-0.043c-10.368 43.435-46.165 79.488-46.165 79.488l-1.152 12.928h188.16l1.109-12.928c0 0-17.237-24.192-16.597-41.984l110.891-601.515z"></path>
	<path class="path4" d="M2984.533 566.613c9.429-34.005 15.104-67.072 15.104-99.157 0-110.635-55.765-201.344-180.48-201.344-143.659 0-258.005 131.413-258.005 301.525 0 134.229 81.237 215.552 208.853 215.552 60.501 0 117.205-18.944 176.725-65.237l-63.232-90.752c-33.109 22.613-66.219 33.067-99.285 33.067-45.355 0-100.139-25.515-92.587-93.611h292.907zM2800.256 379.563c58.624 0 81.28 41.557 76.544 88.875h-168.235c15.104-50.133 44.416-88.875 91.691-88.875z"></path>
	<path class="path5" d="M4077.525 783.147c60.501 0 117.205-18.944 176.768-65.237l-63.275-90.752c-33.067 22.613-66.176 33.067-99.285 33.067-45.312 0-100.181-25.515-92.629-93.611h292.949c9.472-34.005 15.104-67.072 15.104-99.157 0-110.635-55.723-201.344-180.48-201.344-143.659 0-258.005 131.413-258.005 301.525 0.043 134.187 81.28 215.509 208.853 215.509zM4107.776 379.563c58.624 0 81.323 41.557 76.587 88.875h-168.277c15.147-50.133 44.416-88.875 91.691-88.875z"></path>
	<path class="path6" d="M3703.808 460.843c0 12.288-0.939 26.453-3.755 43.477l-47.232 268.373h7.083v0.043h150.4l1.152-12.928c0 0-19.627-27.563-16.256-45.525l-1.579-0.597 38.741-220.757c3.797-24.533 6.656-51.925 6.656-72.789 0-99.243-37.333-154.069-144.171-154.069-32.768 0-69.717 19.84-95.275 43.52l0.341-36.608h-152.32l-1.067 12.885c0 0 15.829 22.272 16.512 39.808l-59.691 354.773-0.725-0.128c-10.411 43.435-46.208 79.488-46.208 79.488l-1.109 12.928h188.117l1.109-12.928c0 0-18.304-25.728-16.427-43.605l37.419-214.741c14.208-82.219 40.149-112.469 83.072-112.469 46.251 0 55.211 23.595 55.211 71.851z"></path>
	<path class="path7" d="M2472.619 714.283l-1.024-0.384 110.976-597.589h-11.477l0.299-3.627h-153.771l-1.152 12.843c0 0 19.627 27.563 16.213 45.525l0.171 0.085-19.499 135.595c-32.171-25.515-58.624-40.661-108.715-40.661-148.395 0-230.571 157.867-230.571 327.083 0 118.144 58.539 189.995 163.456 189.995 39.765 0 70.912-17.067 98.347-41.643l-5.675 31.147h7.083v0.043h150.4l1.109-12.928c0.043 0.085-19.627-27.477-16.171-45.483zM2277.291 660.267c-44.459 0-68.992-30.251-68.992-88.832 0-99.243 37.76-182.4 99.2-182.4 36.864 0 58.624 14.165 83.2 42.496l-33.109 187.136c-20.779 21.717-46.293 41.6-80.299 41.6z"></path>
	<path class="path8" d="M1367.509 312.405l2.133-4.736c-0.299-0.299-0.555-0.683-0.811-0.981l0.171-0.853-9.045-10.155-0.171 0.171c-15.104-17.024-33.024-29.739-69.376-29.739-40.619 0-72.789 18.005-95.488 43.52l5.717-33.067h-4.224l0.299-3.541h-150.4l-1.109 12.843c0 0 15.104 21.248 16.512 38.571l-66.987 378.027c-14.336 32.896-38.571 57.387-38.571 57.387l-1.109 12.928h188.117l1.152-12.928c0 0-19.669-27.563-16.213-45.525l-4.821-1.28 34.816-197.333c17.963-103.936 50.987-119.083 94.549-119.083 8.875 0 16.469 1.365 23.125 3.627 38.443 18.517 46.080 58.069 46.080 58.069l12.501 3.328 33.152-149.248z"></path>
	<path class="path9" d="M3356.16 458.325l12.501 3.328 33.237-149.205 2.048-4.736c-0.256-0.299-0.555-0.683-0.811-0.981l0.171-0.853-8.96-10.197-0.171 0.171c-15.147-17.024-33.024-29.739-69.376-29.739-40.704 0-72.832 18.005-95.488 43.52l5.675-33.067h-4.267l0.299-3.541h-150.4l-1.067 12.843c0 0 15.104 21.248 16.469 38.571l-63.445 358.101c-11.008 42.496-45.525 77.312-45.525 77.312l-1.109 12.928h188.117l1.109-12.928c0 0-19.627-27.563-16.213-45.525l-1.493-0.384 34.944-198.272c17.963-103.936 51.072-119.083 94.507-119.083 8.917 0 16.512 1.365 23.168 3.627 38.485 18.517 46.080 58.112 46.080 58.112z"></path>
	<path class="path10" d="M4339.84 786.304c40.96 20.779 99.328 40.491 177.152 38.229 103.68-2.773 186.496-56.96 187.648-178.432 0.768-79.573-63.701-124.843-141.312-159.488-78.464-34.603-81.792-52.224-81.621-69.12 0.171-18.944 17.92-33.28 52.437-34.219 20.011-0.555 39.723 2.859 58.496 8.619v0.043c40.32 17.792 46.891 59.477 46.891 59.477l12.331 3.328 40.149-155.733-25.813-10.24c-35.883-14.592-78.848-24.661-128.939-23.253-115.541 3.328-181.376 84.181-182.229 174.336-0.64 71.339 43.605 116.139 148.395 159.872 45.909 18.56 71.381 44.885 71.253 64.811-0.299 24.875-18.176 41.387-50.048 42.24-52.779 1.451-87.211-9.131-112.299-19.072v-0.043c-40.448-17.408-47.232-57.643-47.232-57.643l-12.416-3.243-38.869 149.717 25.813 10.027 0.213-0.213z"></path>
	<path class="path11" d="M1495.893 714.283l-0.299-0.043 62.379-356.096c12.288-40.107 44.16-72.277 44.16-72.277l1.152-12.843h-188.117l-1.109 12.843c0 0 19.627 27.563 16.213 45.483l1.877 0.512-61.099 348.715-0.896-0.256c-10.368 43.435-46.165 79.488-46.165 79.488l-1.109 12.928h188.117l1.109-12.928c-0.043 0.043-19.669-27.52-16.213-45.525z"></path>
	<path class="path12" d="M1734.869 714.283l-0.853-0.171 110.165-597.803h-10.112l0.341-3.627h-153.813l-1.067 12.843c0 0 12.416 17.536 15.744 33.707l-88.448 529.28c-12.544 39.765-43.861 71.339-43.861 71.339l-1.152 12.928h188.117l1.152-12.928c0 0-19.627-27.563-16.213-45.568z"></path>
	<path class="path13" d="M4903.253 508.032c-60.885-26.411-63.701-61.184-64.213-76.459-0.981-28.032 16.768-50.603 50.944-51.797 19.029-0.725 37.931 2.091 56.107 7.211l-0.981 1.536c40.96 17.792 48.939 59.477 48.939 59.477l12.501 3.371 34.688-155.861-20.565-7.979c-1.152-1.963-2.688-3.499-4.736-4.309-7.424-2.859-15.189-5.504-23.253-7.936-30.763-9.216-65.749-14.763-104.661-13.312-115.285 4.309-178.091 93.781-174.763 193.109 2.389 70.699 65.237 133.035 152.405 174.336 21.419 10.112 75.904 43.947 67.712 97.963-19.456 129.067-163.712 174.933-318.933 174.933-247.424 0-526.549-79.573-745.771-79.573-116.523 0-220.416 27.264-242.517 110.251 36.352-29.312 82.133-40.277 126.592-40.277 260.352 0 547.499 131.328 806.656 131.328 441.003 0 498.347-197.205 510.379-277.035 16.128-106.496-42.837-185.429-166.528-238.976z"></path>
</symbol>
<symbol id="icon-google" viewBox="0 0 1024 1024">
	<title>google</title>
	<path class="path1" d="M166.043 321.509c0 64.52 21.549 111.073 63.999 138.41 34.808 22.457 75.143 25.824 96.13 25.824 5.096 0 9.2-0.259 12.049-0.432 0 0-6.65 43.358 25.479 86.197h-1.468c-55.667 0-237.218 11.617-237.218 160.951 0 151.839 166.738 159.57 200.207 159.57 2.633 0 4.189-0.086 4.189-0.086 0.346 0 2.722 0.086 6.823 0.086 21.463 0 76.956-2.678 128.476-27.768 66.851-32.39 100.752-88.918 100.752-167.774 0-76.18-51.65-121.524-89.35-154.689-23.018-20.253-42.927-37.702-42.927-54.673 0-17.274 14.553-30.274 32.906-46.726 29.754-26.559 57.826-64.433 57.826-136.033 0-62.92-8.163-105.199-58.473-132.017 5.226-2.678 23.794-4.62 32.95-5.917 27.25-3.714 67.11-7.946 67.11-30.187v-4.276h-198.61c-1.987 0.086-200.855 7.427-200.855 189.541zM486.65 710.738c3.801 60.719-48.151 105.502-126.187 111.16-79.245 5.83-144.454-29.841-148.255-90.516-1.857-29.194 10.969-57.695 36.060-80.455 25.436-23.018 60.374-37.27 98.377-40.077 4.491-0.259 8.938-0.518 13.388-0.518 73.371 0.043 123.035 43.143 126.619 100.407zM434.783 279.922c19.476 68.578-9.932 140.179-56.833 153.438-5.397 1.51-10.926 2.245-16.584 2.245-42.927 0-85.464-43.444-101.27-103.343-8.81-33.513-8.076-62.964 2.030-91.206 9.889-27.854 27.768-46.554 50.224-52.903 5.397-1.51 10.969-2.289 16.627-2.289 51.823 0 85.16 21.507 105.804 94.058zM771.111 425.63v-129.556h-86.37v129.556h-129.556v86.37h129.556v129.556h86.37v-129.556h129.556v-86.37h-129.556z"></path>
</symbol>
<symbol id="icon-instagram" viewBox="0 0 1024 1024">
	<title>instagram</title>
	<path class="path1" d="M814.298 123.333h-604.594c-47.505 0-86.37 38.867-86.37 86.37v604.594c0 47.547 38.867 86.37 86.37 86.37h604.594c47.505 0 86.37-38.824 86.37-86.37v-604.594c0-47.503-38.867-86.37-86.37-86.37zM511.309 750.514c132.104 0 239.162-107.142 239.162-239.204 0-14.597-1.857-28.674-4.448-42.494h68.275v311.625c0 16.497-13.389 29.797-29.928 29.797h-544.741c-16.54 0-29.928-13.303-29.928-29.797v-311.625h66.894c-2.631 13.819-4.491 27.897-4.491 42.494 0 132.104 107.142 239.204 239.204 239.204zM361.845 511.309c0-82.57 66.937-149.465 149.507-149.465 82.527 0 149.507 66.894 149.507 149.465s-66.98 149.507-149.507 149.507c-82.614 0-149.507-66.937-149.507-149.507zM784.37 339.259h-69.745c-16.497 0-29.884-13.472-29.884-29.884v-69.83c0-16.497 13.389-29.841 29.841-29.841h69.745c16.584 0 29.97 13.345 29.97 29.841v69.788c0 16.454-13.389 29.928-29.928 29.928z"></path>
</symbol>
<symbol id="icon-pinterest" viewBox="0 0 1024 1024">
	<title>pinterest</title>
	<path class="path1" d="M441.19 677.222c-26.931 141.005-59.75 276.173-157.082 346.778-30.003-213.094 44.083-373.094 78.541-542.976-58.726-98.816 7.066-297.574 130.816-248.576 152.32 60.211-131.891 367.206 58.88 405.606 199.219 39.987 280.525-345.6 156.979-470.989-178.432-181.146-519.475-4.25-477.491 255.078 10.189 63.386 75.674 82.586 26.163 170.086-114.227-25.293-148.326-115.405-143.923-235.52 7.066-196.608 176.589-334.182 346.675-353.28 215.091-24.115 416.973 79.002 444.877 281.293 31.386 228.403-97.075 475.802-327.117 457.984-62.362-4.864-88.474-35.789-137.318-65.485z"></path>
</symbol>
<symbol id="icon-tumblr" viewBox="0 0 1045.3333333333333 1024">
	<title>tumblr</title>
	<path class="path1" d="M798.72 931.635c-39.783 18.997-75.776 32.307-107.981 39.987-32.256 7.578-67.123 11.418-104.602 11.418-42.547 0-80.179-5.478-112.896-16.282-32.717-10.905-60.57-26.419-83.712-46.49-23.091-20.224-39.117-41.574-48.026-64.205-8.909-22.682-13.363-55.603-13.363-98.612v-330.496h-102.861v-133.325c36.557-11.982 67.891-29.184 93.952-51.712 26.112-22.425 47.002-49.408 62.823-80.896 15.77-31.386 26.573-71.475 32.563-120.064h132.352v238.182h220.877v147.814h-220.877v241.613c0 54.579 2.869 89.702 8.603 105.216 5.683 15.515 16.333 27.904 31.846 37.12 20.634 12.493 44.186 18.79 70.707 18.79 47.103 0 94.003-15.515 140.595-46.49v148.429z"></path>
</symbol>
<symbol id="icon-twitter" viewBox="0 0 1024 1024">
	<title>twitter</title>
	<path class="path1" d="M886.579 319.795c0.41 8.294 0.562 16.69 0.562 24.986 0 255.488-194.406 549.99-549.888 549.99-109.21 0-210.739-32-296.294-86.886 15.155 1.792 30.517 2.714 46.080 2.714 90.624 0 173.926-30.925 240.026-82.688-84.531-1.587-155.955-57.395-180.531-134.197 11.776 2.202 23.91 3.379 36.352 3.379 17.664 0 34.765-2.304 50.944-6.707-88.422-17.819-155.034-95.898-155.034-189.594 0-0.819 0-1.587 0-2.406 26.061 14.49 55.912 23.194 87.552 24.218-51.866-34.714-86.016-93.798-86.016-160.922 0-35.379 9.523-68.608 26.214-97.178 95.283 116.992 237.773 193.894 398.387 201.984-3.277-14.182-4.966-28.877-4.966-44.083 0-106.701 86.477-193.178 193.229-193.178 55.603 0 105.83 23.398 141.106 60.979 43.981-8.704 85.35-24.782 122.727-46.899-14.44 45.107-45.107 82.995-84.992 106.906 39.117-4.71 76.288-15.002 111.002-30.413-25.906 38.81-58.675 72.806-96.461 99.994z"></path>
</symbol>
<symbol id="icon-vimeo" viewBox="0 0 1024 1024">
	<title>vimeo</title>
	<path class="path1" d="M896.781 332.349c-43.444 249.308-286.104 460.356-359.086 508.594-72.984 48.15-139.619-19.303-163.759-70.436-27.682-58.17-110.511-373.812-132.234-399.938-21.723-26.17-86.803 26.127-86.803 26.127l-31.569-42.149c0 0 132.191-160.865 232.812-180.99 106.668-21.29 106.495 166.868 132.147 271.29 24.788 101.14 41.501 158.921 63.181 158.921s63.137-56.357 108.48-142.727c45.475-86.544-1.944-162.895-90.733-108.568 35.542-217.093 371.005-269.304 327.561-20.124z"></path>
</symbol>
<symbol id="icon-youtube" viewBox="0 0 1024 1024">
	<title>youtube</title>
	<path class="path1" d="M512 149.929c-462.135 0-470.223 41.097-470.223 362.071s8.087 362.071 470.223 362.071 470.223-41.097 470.223-362.071-8.087-362.071-470.223-362.071zM662.707 527.705l-211.129 98.559c-18.48 8.558-33.621-1.034-33.621-21.442v-185.644c0-20.361 15.141-30.001 33.621-21.442l211.129 98.559c18.481 8.652 18.481 22.759 0 31.411z"></path>
</symbol>
<symbol id="icon-check" viewBox="0 0 1024 1024">
	<title>check</title>
	<path class="path1" d="M384 689.92l-177.92-177.92-60.373 60.373 238.293 238.293 512-512-60.373-60.373z"></path>
</symbol>
<symbol id="icon-compass" viewBox="0 0 1024 1024">
	<title>compass</title>
	<path class="path1" d="M512 465.067c-25.813 0-46.933 21.12-46.933 46.933s21.12 46.933 46.933 46.933c26.027 0 46.933-21.12 46.933-46.933s-20.907-46.933-46.933-46.933zM512 85.333c-235.733 0-426.667 190.933-426.667 426.667 0 235.52 190.933 426.667 426.667 426.667s426.667-191.147 426.667-426.667c0-235.733-190.933-426.667-426.667-426.667zM605.44 605.44l-349.44 162.56 162.56-349.44 349.44-162.56-162.56 349.44z"></path>
</symbol>
<symbol id="icon-launch" viewBox="0 0 1024 1024">
	<title>launch</title>
	<path class="path1" d="M810.667 810.667h-597.333v-597.333h298.667v-85.333h-298.667c-47.147 0-85.333 38.187-85.333 85.333v597.333c0 47.147 38.187 85.333 85.333 85.333h597.333c47.147 0 85.333-38.187 85.333-85.333v-298.667h-85.333v298.667zM597.333 128v85.333h152.96l-419.413 419.413 60.373 60.373 419.413-419.413v152.96h85.333v-298.667h-298.667z"></path>
</symbol>
<symbol id="icon-clock" viewBox="0 0 1024 1024">
	<title>clock</title>
	<path class="path1" d="M511.787 85.333c-235.733 0-426.453 190.933-426.453 426.667s190.72 426.667 426.453 426.667c235.733 0 426.88-190.933 426.88-426.667s-191.147-426.667-426.88-426.667zM512 853.333c-188.587 0-341.333-152.747-341.333-341.333s152.747-341.333 341.333-341.333 341.333 152.747 341.333 341.333-152.747 341.333-341.333 341.333z"></path>
	<path class="path2" d="M533.333 298.667h-64v256l223.787 134.4 32.213-52.48-192-113.92z"></path>
</symbol>
<symbol id="icon-location" viewBox="0 0 1024 1024">
	<title>location</title>
	<path class="path1" d="M512 85.333c-164.907 0-298.667 133.76-298.667 298.667 0 224 298.667 554.667 298.667 554.667s298.667-330.667 298.667-554.667c0-164.907-133.76-298.667-298.667-298.667zM512 490.667c-58.88 0-106.667-47.787-106.667-106.667s47.787-106.667 106.667-106.667 106.667 47.787 106.667 106.667-47.787 106.667-106.667 106.667z"></path>
</symbol>
<symbol id="icon-search" viewBox="0 0 1024 1024">
	<title>search</title>
	<path class="path1" d="M661.333 597.333h-33.92l-11.733-11.733c41.813-48.427 66.987-111.36 66.987-180.267 0-153.173-124.16-277.333-277.333-277.333s-277.333 124.16-277.333 277.333 124.16 277.333 277.333 277.333c68.907 0 131.84-25.173 180.267-66.773l11.733 11.733v33.707l213.333 212.907 63.573-63.573-212.907-213.333zM405.333 597.333c-106.027 0-192-85.973-192-192s85.973-192 192-192 192 85.973 192 192-85.973 192-192 192z"></path>
</symbol>
<symbol id="icon-cart" viewBox="0 0 1024 1024">
	<title>cart</title>
	<path class="path1" d="M298.667 768c-47.147 0-84.907 38.187-84.907 85.333s37.76 85.333 84.907 85.333 85.333-38.187 85.333-85.333-38.187-85.333-85.333-85.333zM42.667 85.333v85.333h85.333l153.387 323.627-57.6 104.533c-6.613 12.373-10.453 26.24-10.453 41.173 0 47.147 38.187 85.333 85.333 85.333h512v-85.333h-493.867c-5.973 0-10.667-4.693-10.667-10.667 0-1.92 0.427-3.627 1.28-5.12l38.187-69.547h317.867c32 0 59.947-17.707 74.667-43.947l152.533-276.907c3.413-5.973 5.333-13.013 5.333-20.48 0-23.68-19.2-42.667-42.667-42.667h-630.827l-40.533-85.333h-139.307zM725.333 768c-47.147 0-84.907 38.187-84.907 85.333s37.76 85.333 84.907 85.333 85.333-38.187 85.333-85.333-38.187-85.333-85.333-85.333z"></path>
</symbol>
<symbol id="icon-mail" viewBox="0 0 1024 1024">
	<title>mail</title>
	<path class="path1" d="M853.333 170.667h-682.667c-47.147 0-84.907 38.187-84.907 85.333l-0.427 512c0 47.147 38.187 85.333 85.333 85.333h682.667c47.147 0 85.333-38.187 85.333-85.333v-512c0-47.147-38.187-85.333-85.333-85.333zM853.333 341.333l-341.333 213.333-341.333-213.333v-85.333l341.333 213.333 341.333-213.333v85.333z"></path>
</symbol>
<symbol id="icon-alert" viewBox="0 0 1024 1024">
	<title>alert</title>
	<path class="path1" d="M671.147 128h-318.293l-224.853 224.853v318.080l224.853 225.067h318.080l225.067-224.853v-318.293l-224.853-224.853zM512 738.133c-30.507 0-55.467-24.747-55.467-55.467 0-30.507 24.96-55.467 55.467-55.467s55.467 24.747 55.467 55.467c0 30.72-24.96 55.467-55.467 55.467zM554.667 554.667h-85.333v-256h85.333v256z"></path>
</symbol>
<symbol id="icon-camera" viewBox="0 0 1024 1024">
	<title>camera</title>
	<path class="path1" d="M648.533 512c0 75.405-61.128 136.533-136.533 136.533s-136.533-61.128-136.533-136.533c0-75.405 61.128-136.533 136.533-136.533s136.533 61.128 136.533 136.533z"></path>
	<path class="path2" d="M384 85.333l-78.080 85.333h-135.253c-47.147 0-85.333 38.187-85.333 85.333v512c0 47.147 38.187 85.333 85.333 85.333h682.667c47.147 0 85.333-38.187 85.333-85.333v-512c0-47.147-38.187-85.333-85.333-85.333h-135.253l-78.080-85.333h-256zM512 725.333c-117.76 0-213.333-95.573-213.333-213.333s95.573-213.333 213.333-213.333 213.333 95.573 213.333 213.333-95.573 213.333-213.333 213.333z"></path>
</symbol>
<symbol id="icon-left" viewBox="0 0 1024 1024">
	<title>left</title>
	<path class="path1" d="M657.707 316.373l-60.373-60.373-256 256 256 256 60.373-60.373-195.627-195.627z"></path>
</symbol>
<symbol id="icon-right" viewBox="0 0 1024 1024">
	<title>right</title>
	<path class="path1" d="M426.667 256l-60.373 60.373 195.627 195.627-195.627 195.627 60.373 60.373 256-256z"></path>
</symbol>
<symbol id="icon-expand" viewBox="0 0 1024 1024">
	<title>expand</title>
	<path class="path1" d="M298.667 597.333h-85.333v213.333h213.333v-85.333h-128v-128zM213.333 426.667h85.333v-128h128v-85.333h-213.333v213.333zM725.333 725.333h-128v85.333h213.333v-213.333h-85.333v128zM597.333 213.333v85.333h128v128h85.333v-213.333h-213.333z"></path>
</symbol>
<symbol id="icon-collapse" viewBox="0 0 1024 1024">
	<title>collapse</title>
	<path class="path1" d="M213.333 682.667h128v128h85.333v-213.333h-213.333v85.333zM341.333 341.333h-128v85.333h213.333v-213.333h-85.333v128zM597.333 810.667h85.333v-128h128v-85.333h-213.333v213.333zM682.667 341.333v-128h-85.333v213.333h213.333v-85.333h-128z"></path>
</symbol>
<symbol id="icon-share" viewBox="0 0 1024 1024">
	<title>share</title>
	<path class="path1" d="M768 686.293c-32.427 0-61.653 12.587-83.84 32.853l-304-177.28c2.347-9.6 3.84-19.627 3.84-29.867s-1.493-20.267-3.84-29.867l300.8-175.573c22.827 21.333 53.333 34.56 87.040 34.56 70.613 0 128-57.387 128-128s-57.387-128-128-128-128 57.387-128 128c0 10.24 1.493 20.267 3.84 29.867l-300.8 175.573c-22.827-21.333-53.333-34.56-87.040-34.56-70.613 0-128 57.387-128 128s57.387 128 128 128c33.707 0 64.213-13.227 87.040-34.56l304 177.28c-2.133 8.96-3.413 18.347-3.413 27.947 0 68.693 55.68 124.373 124.373 124.373s124.373-55.68 124.373-124.373-55.68-124.373-124.373-124.373z"></path>
</symbol>
<symbol id="icon-facebook" viewBox="0 0 1024 1024">
	<title>facebook</title>
	<path class="path1" d="M593.414 46.976c-99.639 0-180.409 80.772-180.409 180.409v108.247h-144.328v144.328h144.328v505.145h144.328v-505.145h162.369l36.081-144.328h-198.451v-108.247c0-19.927 16.153-36.081 36.081-36.081h180.409v-144.328h-180.409z"></path>
</symbol>
<symbol id="icon-rss" viewBox="0 0 1024 1024">
	<title>rss</title>
	<path class="path1" d="M255.848 674.899c-51.267 0-92.923 41.816-92.923 92.775 0 51.239 41.657 92.587 92.923 92.587 51.452 0 93.061-41.348 93.061-92.587-0.002-50.959-41.603-92.775-93.061-92.775zM163.031 400.139v133.806c87.122 0 169.055 34.071 230.757 95.8 61.623 61.579 95.643 143.88 95.643 231.332h134.397c-0.002-254.184-206.773-460.936-460.793-460.936zM163.189 162.924v133.872c310.746 0 563.672 253.171 563.672 564.278h134.215c0-384.849-313.113-698.152-697.888-698.152z"></path>
</symbol>
</defs>
</svg>
